<svg xmlns="http://www.w3.org/2000/svg" viewBox="0 0 480 360" preserveAspectRatio="xMidYMid slice"><rect width="480" height="360" fill="#131313"/><rect x="67.8" y="95.2" width="59.5" height="53.8" fill="#242424"/><rect x="2.9" y="94.1" width="73.6" height="91.6" fill="#0e0e0e"/><rect x="405.2" y="255.6" width="126.7" height="89.9" fill="#0e0e0e"/><rect x="69.3" y="39.6" width="120.0" height="30.4" fill="#242424"/><rect x="219.0" y="340.8" width="119.6" height="115.1" fill="#0e0e0e"/><rect x="73.8" y="66.0" width="36.4" height="58.1" fill="#0e0e0e"/><rect x="445.4" y="11.2" width="47.6" height="67.7" fill="#242424"/><rect x="281.3" y="212.3" width="67.9" height="89.7" fill="#0e0e0e"/><rect x="456.2" y="343.7" width="65.6" height="51.4" fill="#242424"/><rect x="86.6" y="151.8" width="47.5" height="61.0" fill="#242424"/><rect x="1.7" y="21.9" width="36.2" height="44.3" fill="#1f1f1f"/><rect x="265.5" y="235.1" width="62.0" height="76.8" fill="#242424"/><rect x="397.1" y="209.5" width="118.9" height="90.3" fill="#242424"/><rect x="250.7" y="236.2" width="119.7" height="109.5" fill="#1f1f1f"/><rect x="0" y="0" width="42" height="42" fill="#ffffff" opacity="0.68"/><rect x="44" y="0" width="42" height="42" fill="#0f0f0f" opacity="0.85"/><rect x="88" y="0" width="42" height="42" fill="#2b2b2b" opacity="0.85"/><rect x="132" y="0" width="42" height="42" fill="#ffffff" opacity="0.98"/><rect x="176" y="0" width="42" height="42" fill="#2b2b2b" opacity="0.85"/><rect x="220" y="0" width="42" height="42" fill="#0f0f0f" opacity="0.85"/><rect x="264" y="0" width="42" height="42" fill="#ffffff" opacity="0.67"/><rect x="308" y="0" width="42" height="42" fill="#0f0f0f" opacity="0.85"/><rect x="352" y="0" width="42" height="42" fill="#2b2b2b" opacity="0.85"/><rect x="396" y="0" width="42" height="42" fill="#ffffff" opacity="0.61"/><rect x="0" y="44" width="42" height="42" fill="#2b2b2b" opacity="0.85"/><rect x="44" y="44" width="42" height="42" fill="#0f0f0f" opacity="0.85"/><rect x="88" y="44" width="42" height="42" fill="#ffffff" opacity="0.85"/><rect x="132" y="44" width="42" height="42" fill="#0f0f0f" opacity="0.85"/><rect x="176" y="44" width="42" height="42" fill="#2b2b2b" opacity="0.85"/><rect x="220" y="44" width="42" height="42" fill="#ffffff" opacity="0.66"/><rect x="264" y="44" width="42" height="42" fill="#2b2b2b" opacity="0.85"/><rect x="308" y="44" width="42" height="42" fill="#0f0f0f" opacity="0.85"/><rect x="352" y="44" width="42" height="42" fill="#ffffff" opacity="0.69"/><rect x="396" y="44" width="42" height="42" fill="#0f0f0f" opacity="0.85"/><rect x="0" y="88" width="42" height="42" fill="#2b2b2b" opacity="0.85"/><rect x="44" y="88" width="42" height="42" fill="#ffffff" opacity="0.86"/><rect x="88" y="88" width="42" height="42" fill="#2b2b2b" opacity="0.85"/><rect x="132" y="88" width="42" height="42" fill="#0f0f0f" opacity="0.85"/><rect x="176" y="88" width="42" height="42" fill="#ffffff" opacity="0.67"/><rect x="220" y="88" width="42" height="42" fill="#0f0f0f" opacity="0.85"/><rect x="264" y="88" width="42" height="42" fill="#2b2b2b" opacity="0.85"/><rect x="308" y="88" width="42" height="42" fill="#ffffff" opacity="0.78"/><rect x="352" y="88" width="42" height="42" fill="#2b2b2b" opacity="0.85"/><rect x="396" y="88" width="42" height="42" fill="#0f0f0f" opacity="0.85"/><rect x="0" y="132" width="42" height="42" fill="#ffffff" opacity="0.86"/><rect x="44" y="132" width="42" height="42" fill="#0f0f0f" opacity="0.85"/><rect x="88" y="132" width="42" height="42" fill="#2b2b2b" opacity="0.85"/><rect x="132" y="132" width="42" height="42" fill="#ffffff" opacity="0.76"/><rect x="176" y="132" width="42" height="42" fill="#2b2b2b" opacity="0.85"/><rect x="220" y="132" width="42" height="42" fill="#0f0f0f" opacity="0.85"/><rect x="264" y="132" width="42" height="42" fill="#ffffff" opacity="0.65"/><rect x="308" y="132" width="42" height="42" fill="#0f0f0f" opacity="0.85"/><rect x="352" y="132" width="42" height="42" fill="#2b2b2b" opacity="0.85"/><rect x="396" y="132" width="42" height="42" fill="#ffffff" opacity="0.91"/><circle cx="240" cy="180" r="78" fill="#000"/></svg>